# xmcd
# 
# Track frame offsets:
#     150
#     18044
#     41516
#     63851
#     84257
#     103467
#     123496
#     142148
#     159739
#     181411
# 
# Disc length: 2743
# 
# Revision: 0
# Processed by: cddbd v1.5.2PL0 Copyright (c) Steve Scherf et al.
# Submitted via: fre:ac v1.0.31
# 
DISCID=830ab50a
DTITLE=Hamer, Jefferson - Left Wing Sweetheart
DYEAR=2005
DGENRE=Folk/Rock
TTITLE0=Killing This Town
TTITLE1=Brand Names
TTITLE2=Lonesome Banjo Blues
TTITLE3=Left Wing Sweetheart
TTITLE4=FM Radio
TTITLE5=I Won't Be Chasing You
TTITLE6=Euphrates River
TTITLE7=Free Market Girls
TTITLE8=Poor Matthew Young's Mandatory Minimum
TTITLE9=My Own Bed
EXTD=
EXTT0=
EXTT1=
EXTT2=
EXTT3=
EXTT4=
EXTT5=
EXTT6=
EXTT7=
EXTT8=
EXTT9=
PLAYORDER=
